<?xml version="1.0" encoding="UTF-8"?>
<svg width="256" height="128" viewBox="0 0 256 128" version="1.1" xmlns="http://www.w3.org/2000/svg" xmlns:xlink="http://www.w3.org/1999/xlink">
    <rect x="0" y="32" width="32" height="32" fill="hsl(40, 100%, 50%)" transform="skewY(-45)" />
    <rect x="0" y="64" width="32" height="32" fill="hsl(30, 100%, 45%)" transform="skewY(-45)" />
    <rect x="0" y="96" width="32" height="32" fill="hsl(20, 100%, 40%)" transform="skewY(-45)" />
    <rect x="128" y="96" width="32" height="32" fill="hsl(10, 100%, 35%)" transform="skewX(-45)" />
    <rect x="160" y="96" width="32" height="32" fill="hsl(0, 100%, 30%)" transform="skewX(-45)" />

    <rect x="160" y="-128" width="32" height="32" fill="hsl(180, 100%, 35%)" transform="skewY(45)" />
    <rect x="128" y="-128" width="32" height="32" fill="hsl(200, 100%, 45%)" transform="skewY(45)" />
    <rect x="128" y="-96" width="32" height="32" fill="hsl(220, 100%, 35%)" transform="skewY(45)" />
    <rect x="128" y="-64" width="32" height="32" fill="hsl(240, 100%, 25%)" transform="skewY(45)" />

    <rect x="192" y="256" width="32" height="32" fill="hsl(160, 100%, 35%)" transform="skewY(-45)" />
    <rect x="224" y="256" width="32" height="32" fill="hsl(160, 100%, 20%)" transform="skewY(-45)" />
    <rect x="224" y="288" width="32" height="32" fill="hsl(120, 100%, 30%)" transform="skewY(-45)" />
    <rect x="224" y="320" width="32" height="32" fill="hsl(80, 100%, 40%)" transform="skewY(-45)" />
</svg>
